<?xml version="1.0" encoding="UTF-8"?>
<svg version="1.1" xmlns="http://www.w3.org/2000/svg" viewBox="250 100 400 300" preserveAspectRatio="xMidYMid meet">
<path d="M0 0 C297 0 594 0 900 0 C900 165 900 330 900 500 C603 500 306 500 0 500 C0 335 0 170 0 0 Z " fill="#FEFEFE" transform="translate(0,0)"/>
<path d="M0 0 C4.62 0 9.24 0 14 0 C15.44207941 2.88415883 15.09394887 5.41721528 15.0625 8.625 C15.05347656 9.81351563 15.04445313 11.00203125 15.03515625 12.2265625 C15.01775391 13.59941406 15.01775391 13.59941406 15 15 C15.90363281 14.97679688 16.80726563 14.95359375 17.73828125 14.9296875 C18.91777344 14.91164063 20.09726562 14.89359375 21.3125 14.875 C23.07013672 14.84019531 23.07013672 14.84019531 24.86328125 14.8046875 C28 15 28 15 31 17 C31.24950462 19.59009554 31.32719737 21.9187129 31.25 24.5 C31.24484375 25.18964844 31.2396875 25.87929687 31.234375 26.58984375 C31.15483526 31.69032948 31.15483526 31.69032948 30 34 C24.72 34 19.44 34 14 34 C13.50368557 43.01187082 13.50368557 43.01187082 16.671875 51.0859375 C18.73226392 52.52748938 18.73226392 52.52748938 20.9296875 53.74609375 C25.66974574 56.61695921 28.31268189 61.86468402 30 67 C31.04408695 75.78438541 30.68659062 82.6698388 25.60546875 90.046875 C24.1535408 91.81321071 22.6575152 93.4271027 21 95 C22.47202136 98.4347165 23.87312711 100.8893608 27 103 C34.23291088 103.19018052 41.21933122 101.02764177 48.0625 98.9375 C49.09181641 98.63094482 50.12113281 98.32438965 51.18164062 98.00854492 C59.88278679 95.39570074 68.52061658 92.59044356 77.16162109 89.78662109 C91.80686763 85.07531896 105.67910866 81.81369192 121.125 81.6875 C122.28515625 81.65849609 123.4453125 81.62949219 124.640625 81.59960938 C136.60900255 81.51259097 146.59191952 84.52084898 156 92 C156.61488281 92.47824219 157.22976563 92.95648438 157.86328125 93.44921875 C165.10173376 99.82098293 170.44396211 110.45120087 171.15087891 120.04833984 C172.57806665 147.59704351 161.89136211 169.04844495 148.57299805 192.56347656 C138.38469795 210.63151869 133.35060572 225.84454856 131 247 C49.16 247 -32.68 247 -117 247 C-117.66 241.06 -118.32 235.12 -119 229 C-119.71100025 225.8785355 -120.36209249 223.19707419 -121.4375 220.25 C-121.68918945 219.52941406 -121.94087891 218.80882812 -122.20019531 218.06640625 C-127.09787698 204.69567853 -134.16226641 192.15756133 -141.1875 179.8125 C-146.26343547 170.86227092 -150.39356852 161.63324049 -154 152 C-154.38285156 150.98035156 -154.76570313 149.96070313 -155.16015625 148.91015625 C-157.19039525 142.32840469 -157.2933322 135.71070867 -157.375 128.875 C-157.39626953 127.49671021 -157.39626953 127.49671021 -157.41796875 126.09057617 C-157.32542278 113.18619794 -152.44566113 102.87822285 -143.9375 93.25 C-131.19912777 81.20962077 -115.51710399 81.49968087 -99.12646484 81.87695312 C-77.87872006 82.71319109 -56.31419105 91.79244472 -36.30883789 98.38549805 C-24.86789493 102.51044566 -24.86789493 102.51044566 -13 103 C-10.69117031 101.17416687 -8.9543651 99.23356011 -7 97 C-8.82967117 93.11084389 -11.20047816 89.73085759 -13.66015625 86.21875 C-16.96203211 80.75092059 -16.68509573 74.1886981 -16 68 C-13.731667 61.42183429 -10.18808067 54.7094918 -3.92578125 51.3515625 C-0.64559953 49.21862416 -0.64559953 49.21862416 -0.1953125 45.328125 C-0.14255316 43.96957203 -0.11985986 42.60956732 -0.125 41.25 C-0.104375 40.55261719 -0.08375 39.85523438 -0.0625 39.13671875 C-0.01560345 37.42499473 -0.0042596 35.71236102 0 34 C-1.05960938 34.03480469 -2.11921875 34.06960937 -3.2109375 34.10546875 C-4.59894252 34.13360399 -5.98696463 34.16090443 -7.375 34.1875 C-8.07367188 34.21263672 -8.77234375 34.23777344 -9.4921875 34.26367188 C-11.5234375 34.29296875 -11.5234375 34.29296875 -15 34 C-17.46062979 30.30905532 -17.26816777 28.32955805 -17.25 23.9375 C-17.25773437 22.06384766 -17.25773437 22.06384766 -17.265625 20.15234375 C-17 17 -17 17 -15 15 C-11.7421875 14.8046875 -11.7421875 14.8046875 -7.875 14.875 C-5.95300781 14.90207031 -5.95300781 14.90207031 -3.9921875 14.9296875 C-2.51105469 14.96449219 -2.51105469 14.96449219 -1 15 C-1.01160156 14.08476563 -1.02320313 13.16953125 -1.03515625 12.2265625 C-1.04417969 11.03804687 -1.05320312 9.84953125 -1.0625 8.625 C-1.07410156 7.44164063 -1.08570313 6.25828125 -1.09765625 5.0390625 C-1 2 -1 2 0 0 Z " fill="#03226A" transform="translate(442,107)"/>
<path d="M0 0 C6.08827076 5.28503809 9.60619761 11.19241931 10.37890625 19.296875 C10.71554466 52.48942197 -10.56674167 87.78612049 -32.80078125 111.5859375 C-39.10174554 117.97822011 -44.35819945 123.09771642 -53.58203125 124.2109375 C-57.56309708 123.69487341 -59.14837293 122.58209582 -61.95703125 119.7734375 C-63.21427092 117.25895816 -63.19590139 115.39549813 -63.26953125 112.5859375 C-63.32560547 111.20341797 -63.32560547 111.20341797 -63.3828125 109.79296875 C-62.81757779 105.78446941 -61.95515368 102.6213347 -58.95703125 99.7734375 C-55.70654732 98.77418541 -52.58793284 98.79348896 -49.20703125 98.8359375 C-48.31886719 98.81982422 -47.43070313 98.80371094 -46.515625 98.78710938 C-44.32785881 98.75182282 -42.14480112 98.7483309 -39.95703125 98.7734375 C-39.46203125 97.5978125 -38.96703125 96.4221875 -38.45703125 95.2109375 C-38.17859375 94.54964844 -37.90015625 93.88835937 -37.61328125 93.20703125 C-36.653275 90.06709545 -36.653275 90.06709545 -36.95703125 83.7734375 C-43.22703125 83.7734375 -49.49703125 83.7734375 -55.95703125 83.7734375 C-55.13587206 77.20416401 -54.12238191 72.79876107 -51.95703125 66.7734375 C-59.87703125 67.2684375 -59.87703125 67.2684375 -67.95703125 67.7734375 C-68.39015625 69.2790625 -68.82328125 70.7846875 -69.26953125 72.3359375 C-70.53428192 76.73245175 -72.11779789 80.48189298 -73.95703125 84.7734375 C-81.87703125 85.2684375 -81.87703125 85.2684375 -89.95703125 85.7734375 C-93.32890767 92.74900766 -93.32890767 92.74900766 -93.95703125 100.7734375 C-88.34703125 100.7734375 -82.73703125 100.7734375 -76.95703125 100.7734375 C-76.95703125 107.90511609 -78.58855296 111.29508159 -82.95703125 116.7734375 C-88.454297 121.41993593 -93.55124428 124.19087563 -100.90625 124.04296875 C-106.0312177 123.36940157 -109.04728584 119.87756417 -112.08203125 116.0234375 C-118.82265128 106.49481232 -121.34426488 97.32347673 -121.26953125 85.7109375 C-121.2638916 84.78627686 -121.25825195 83.86161621 -121.25244141 82.90893555 C-120.94206248 65.19121575 -115.12456806 48.51754303 -107.86328125 32.51171875 C-106.85132343 29.45403585 -106.96971594 27.21818725 -107.14453125 24.0234375 C-106.98046875 21.30078125 -106.98046875 21.30078125 -105.95703125 18.7734375 C-101.09888486 15.03279861 -95.64794526 12.95787381 -89.95703125 10.7734375 C-89.12349121 10.4424707 -88.28995117 10.11150391 -87.43115234 9.77050781 C-76.88209637 5.60981202 -66.14226218 2.10952415 -55.26953125 -1.1015625 C-54.30273438 -1.38781494 -53.3359375 -1.67406738 -52.33984375 -1.96899414 C-35.87124952 -6.69235733 -14.88456041 -10.80118543 0 0 Z " fill="#FCFCFD" transform="translate(584.95703125,211.2265625)"/>
<path d="M0 0 C0.60972656 0.22413574 1.21945312 0.44827148 1.84765625 0.67919922 C6.27531762 2.30876346 10.25233559 4.05805694 14 7 C15.23748866 10.12848258 15.37690069 12.72884001 15.53125 16.0859375 C16.1326003 21.10721253 17.88857578 25.19418437 19.875 29.8125 C23.50613923 38.4237202 26.1272135 46.83710106 28 56 C28.19078125 56.91910156 28.3815625 57.83820313 28.578125 58.78515625 C30.65394756 74.60369302 30.22897652 90.81075322 20.5859375 104.125 C17.56989958 107.69075912 13.96228533 111.49564539 9.1875 112.30859375 C2.19759001 112.72049916 -2.66246735 110.4600061 -8 106 C-12.64761895 100.3833431 -15 96.35039341 -15 89 C-9.39 89 -3.78 89 2 89 C1.690625 87.1025 1.38125 85.205 1.0625 83.25 C0.88847656 82.18265625 0.71445312 81.1153125 0.53515625 80.015625 C0.11246943 77.63376932 -0.39760016 75.33898839 -1 73 C-2.20398438 73.03480469 -3.40796875 73.06960938 -4.6484375 73.10546875 C-6.22394442 73.1336028 -7.79946638 73.16090337 -9.375 73.1875 C-10.1690625 73.21263672 -10.963125 73.23777344 -11.78125 73.26367188 C-13.85586148 73.29004405 -15.93100865 73.15486462 -18 73 C-20.20324589 69.69513117 -20.74426937 67.23910486 -21.5625 63.375 C-22.11685769 59.37000416 -22.11685769 59.37000416 -24 56 C-26.52596259 55.76346477 -29.03107207 55.57826308 -31.5625 55.4375 C-32.27341797 55.39431641 -32.98433594 55.35113281 -33.71679688 55.30664062 C-35.47761912 55.20028223 -37.2387832 55.09961154 -39 55 C-38.7834375 55.80824219 -38.566875 56.61648438 -38.34375 57.44921875 C-38.0653125 58.51785156 -37.786875 59.58648437 -37.5 60.6875 C-37.2215625 61.74324219 -36.943125 62.79898438 -36.65625 63.88671875 C-36 67 -36 67 -36 72 C-42.27 72 -48.54 72 -55 72 C-54.855625 73.753125 -54.71125 75.50625 -54.5625 77.3125 C-54.48128906 78.29863281 -54.40007812 79.28476562 -54.31640625 80.30078125 C-54.08187441 83.09375599 -54.08187441 83.09375599 -53 86 C-50.75092904 87.12453548 -49.46735667 87.137222 -46.97265625 87.17578125 C-46.18052734 87.19962891 -45.38839844 87.22347656 -44.57226562 87.24804688 C-42.90325258 87.29090869 -41.23390164 87.32221773 -39.56445312 87.34179688 C-33.48137257 87.55428466 -33.48137257 87.55428466 -30.99609375 89.85546875 C-29.22791081 93.66226261 -28.7853499 96.77115441 -28.6875 100.9375 C-28.63142578 102.49791016 -28.63142578 102.49791016 -28.57421875 104.08984375 C-29.10611366 107.7252723 -30.09761168 108.81181195 -33 111 C-37.74954316 112.85731162 -42.20652993 112.30026164 -46.8125 110.3125 C-71.6436837 96.22742362 -91.65737683 57.26527841 -99.3125 31.0625 C-99.77076172 29.53302734 -99.77076172 29.53302734 -100.23828125 27.97265625 C-102.89614037 17.60019065 -103.7234641 5.88710765 -99 -4 C-94.27689348 -11.64308975 -87.48674576 -14.86075406 -79.1640625 -17.60546875 C-53.4245252 -22.29805587 -23.25533242 -9.86496149 0 0 Z " fill="#FCFCFD" transform="translate(405,223)"/>
<path d="M0 0 C83.82 0 167.64 0 254 0 C254 7.26 254 14.52 254 22 C170.18 22 86.36 22 0 22 C0 14.74 0 7.48 0 0 Z " fill="#04236A" transform="translate(322,371)"/>
<path d="M0 0 C2.05078125 0.03255208 4.1015625 0.06510417 6.15234375 0.09765625 C6.15234375 0.42765625 6.15234375 0.75765625 6.15234375 1.09765625 C5.07984375 1.36578125 4.00734375 1.63390625 2.90234375 1.91015625 C-0.41274553 2.95993452 -2.28643271 3.84377953 -4.84765625 6.09765625 C-2.55432956 0.13500685 -2.55432956 0.13500685 0 0 Z " fill="#AAB8D0" transform="translate(527.84765625,310.90234375)"/>
</svg>
